<?xml version="1.0" encoding="utf-8"?>
<!-- Generator: Adobe Illustrator 16.0.3, SVG Export Plug-In . SVG Version: 6.00 Build 0)  -->
<!DOCTYPE svg PUBLIC "-//W3C//DTD SVG 1.1//EN" "http://www.w3.org/Graphics/SVG/1.1/DTD/svg11.dtd">
<svg version="1.1" id="レイヤー_1" xmlns="http://www.w3.org/2000/svg" xmlns:xlink="http://www.w3.org/1999/xlink" x="0px"
	 y="0px" width="100px" height="100px" viewBox="0 0 100 100" enable-background="new 0 0 100 100" xml:space="preserve">
<path fill="#1EBBEE" d="M50,100C22.386,100,0,77.614,0,50S22.386,0,50,0s50,22.386,50,50S77.614,100,50,100z M81.5,50
	c0-17.397-14.103-31.5-31.5-31.5c-17.397,0-31.5,14.103-31.5,31.5c0,17.397,14.103,31.5,31.5,31.5C67.397,81.5,81.5,67.397,81.5,50z
	"/>
<g>
	<rect x="3" y="45.3" transform="matrix(0.7071 0.7071 -0.7071 0.7071 50.0002 -20.7105)" fill="#1EBBEE" width="94" height="9.4"/>
	
		<rect x="3" y="45.299" transform="matrix(-0.7071 0.7071 -0.7071 -0.7071 120.7105 49.9996)" fill="#1EBBEE" width="94" height="9.401"/>
</g>
</svg>
