<svg xmlns="http://www.w3.org/2000/svg" viewBox="11.23 105.265 258 161"><defs/><path fill="none" d="M-.001 87.785h281.95v242.126H-.001z"/><path fill="#9C0" d="M233.425 199.746c0-50.865-41.455-92.319-92.323-92.319-50.865 0-92.319 41.454-92.319 92.319a92.05 92.05 0 0025.051 63.2c2.161 2.288 5.723 2.416 8.139.255l9.919-9.409a5.643 5.643 0 00.256-8.014 67.071 67.071 0 01-18.186-45.904c0-37.006 30.135-67.143 67.141-67.143s67.143 30.137 67.143 67.143a66.825 66.825 0 01-18.184 45.904 5.653 5.653 0 00-1.543 3.878c0 1.568.65 3.066 1.799 4.133l9.916 9.41c2.289 2.161 5.977 2.035 8.139-.253 16.148-17.293 25.052-39.675 25.052-63.2"/><path fill="#9C0" d="M268.267 199.24a124.664 124.664 0 00-5.596-36.88c-1.018-2.925-4.195-4.577-7.121-3.688l-13.097 4.068c-3.054.893-4.705 4.071-3.815 7.122a99.677 99.677 0 014.449 29.375c0 17.802-4.832 35.098-13.859 50.355a5.532 5.532 0 00-.832 2.914 5.54 5.54 0 002.865 4.845l11.701 6.993c2.67 1.654 6.229.762 7.883-1.905 11.445-18.95 17.422-40.823 17.422-63.202M52.979 249.593a98.366 98.366 0 01-13.859-50.355 99.01 99.01 0 014.45-29.375c.89-3.051-.762-6.229-3.815-7.122l-13.097-4.065c-3.051-.893-6.231.76-7.121 3.685a124.663 124.663 0 00-5.595 36.88 124.2 124.2 0 0017.421 63.328c1.643 2.681 5.198 3.541 7.883 1.905l11.701-6.994c2.669-1.649 3.56-5.211 2.033-7.883"/></svg>