<svg xmlns="http://www.w3.org/2000/svg" viewBox="0 0 121.386 118.5"><defs/><g fill="#1A1414"><path fill-rule="evenodd" d="M60.942.431C27.595.431.554 27.466.554 60.818c0 26.682 17.303 49.316 41.297 57.303 3.018.559 4.126-1.311 4.126-2.906 0-1.439-.056-6.197-.082-11.242-16.8 3.652-20.345-7.125-20.345-7.125-2.747-6.98-6.705-8.836-6.705-8.836-5.479-3.748.413-3.672.413-3.672 6.063.426 9.257 6.225 9.257 6.225 5.386 9.23 14.127 6.563 17.573 5.02.542-3.902 2.106-6.568 3.834-8.076-13.413-1.525-27.514-6.705-27.514-29.843 0-6.593 2.359-11.98 6.223-16.209-.627-1.521-2.694-7.663.585-15.981 0 0 5.071-1.622 16.61 6.191 4.817-1.338 9.983-2.009 15.115-2.033 5.131.023 10.301.694 15.127 2.033 11.527-7.813 16.59-6.191 16.59-6.191 3.287 8.318 1.221 14.46.594 15.981 3.871 4.229 6.215 9.616 6.215 16.209 0 23.195-14.127 28.3-27.574 29.796 2.166 1.873 4.096 5.549 4.096 11.182 0 8.08-.07 14.584-.07 16.572 0 1.607 1.088 3.49 4.148 2.898 23.98-7.994 41.262-30.623 41.262-57.295C121.33 27.466 94.292.431 60.942.431z" clip-rule="evenodd"/><path d="M23.427 87.135c-.133.301-.605.391-1.035.184-.438-.197-.684-.605-.542-.906.13-.309.603-.395 1.04-.189.438.196.688.61.537.911zm-.743-.551M25.873 89.863c-.288.266-.852.143-1.233-.279-.396-.422-.469-.984-.177-1.256.297-.266.843-.141 1.238.279.396.426.473.985.172 1.256zm-.576-.619M28.254 93.34c-.37.258-.976.018-1.35-.52-.37-.537-.37-1.182.009-1.439.374-.258.971-.025 1.35.506.369.547.369 1.191-.009 1.453zm0 0M31.516 96.701c-.331.365-1.036.266-1.552-.232-.528-.486-.675-1.178-.344-1.543.336-.365 1.045-.262 1.564.232.525.487.684 1.182.332 1.543zm0 0M36.016 98.652c-.146.473-.825.688-1.509.486-.684-.207-1.13-.762-.992-1.238.142-.477.824-.701 1.513-.486.682.207 1.129.756.988 1.238zm0 0M40.958 99.014c.017.498-.563.91-1.281.92-.722.016-1.307-.387-1.314-.877 0-.504.567-.912 1.289-.924.717-.014 1.306.387 1.306.881zm0 0M45.557 98.23c.086.486-.413.984-1.126 1.117-.701.129-1.35-.172-1.439-.652-.087-.498.421-.998 1.121-1.127.713-.123 1.353.168 1.444.662zm0 0"/></g></svg>