<svg xmlns="http://www.w3.org/2000/svg" viewBox="0 159.931 93.73 99.5"><defs/><path fill="#FFF" d="M5.881 165.109l54.085-3.994c6.644-.57 8.351-.187 12.528 2.851l17.265 12.162c2.847 2.092 3.795 2.662 3.795 4.939v66.705c0 4.18-1.518 6.652-6.832 7.03l-62.808 3.803c-3.988.189-5.888-.381-7.976-3.043L3.226 239.03C.945 235.987 0 233.709 0 231.047v-59.292c0-3.418 1.518-6.268 5.881-6.646z"/><path d="M59.966 161.115l-54.085 3.994C1.518 165.487 0 168.337 0 171.755v59.292c0 2.662.945 4.939 3.226 7.982l12.713 16.532c2.088 2.662 3.988 3.232 7.976 3.043l62.808-3.803c5.311-.378 6.832-2.851 6.832-7.03v-66.705c0-2.16-.854-2.782-3.366-4.626l-.433-.313-17.262-12.162c-4.177-3.037-5.884-3.421-12.528-2.85zm-34.631 18.861c-5.128.345-6.292.423-9.204-1.945l-7.406-5.891c-.753-.763-.375-1.714 1.521-1.903l51.994-3.799c4.366-.381 6.64 1.141 8.347 2.47l8.918 6.461c.381.192 1.329 1.329.189 1.329L26 179.93l-.665.046zm-5.978 67.225v-56.627c0-2.473.759-3.613 3.033-3.806l61.67-3.61c2.092-.188 3.037 1.141 3.037 3.61v56.249c0 2.473-.381 4.564-3.796 4.754l-59.015 3.421c-3.414.189-4.929-.948-4.929-3.991zm58.256-53.59c.378 1.711 0 3.422-1.71 3.617l-2.845.563V239.6c-2.47 1.329-4.744 2.089-6.643 2.089-3.037 0-3.796-.952-6.07-3.8l-18.601-29.265v28.313l5.884 1.333s0 3.421-4.747 3.421l-13.088.759c-.381-.762 0-2.661 1.326-3.039l3.418-.948v-37.437l-4.744-.385c-.381-1.71.567-4.18 3.226-4.372l14.043-.945 19.354 29.643v-26.225l-4.933-.566c-.381-2.096 1.137-3.617 3.033-3.803l13.097-.762z"/></svg>