<?xml version="1.0" encoding="utf-8"?>
<!-- Generator: Adobe Illustrator 16.0.3, SVG Export Plug-In . SVG Version: 6.00 Build 0)  -->
<!DOCTYPE svg PUBLIC "-//W3C//DTD SVG 1.1//EN" "http://www.w3.org/Graphics/SVG/1.1/DTD/svg11.dtd">
<svg version="1.1" id="レイヤー_1" xmlns="http://www.w3.org/2000/svg" xmlns:xlink="http://www.w3.org/1999/xlink" x="0px"
	 y="0px" width="25.5px" height="25.25px" viewBox="0 5.063 25.5 25.25" enable-background="new 0 5.063 25.5 25.25"
	 xml:space="preserve">
<g>
	
		<linearGradient id="SVGID_1_" gradientUnits="userSpaceOnUse" x1="-68.7021" y1="210.4922" x2="-68.7021" y2="211.4922" gradientTransform="matrix(25.2082 0 0 -25.1919 1744.701 5333.0063)">
		<stop  offset="0" style="stop-color:#0052CC"/>
		<stop  offset="1" style="stop-color:#2684FF"/>
	</linearGradient>
	<path fill="url(#SVGID_1_)" d="M22.45,5.105H3.231c-1.653,0-2.995,1.339-2.997,2.993v19.191c-0.003,0.797,0.311,1.562,0.873,2.126
		c0.563,0.564,1.327,0.882,2.124,0.882H22.45c0.796-0.001,1.559-0.318,2.121-0.883s0.875-1.33,0.872-2.125V8.098
		C25.44,6.446,24.102,5.107,22.45,5.105z M11.106,23.25c-0.001,0.266-0.108,0.521-0.298,0.709c-0.189,0.187-0.446,0.291-0.712,0.289
		h-4.2c-0.549-0.003-0.993-0.449-0.993-0.998V10.751c0-0.549,0.444-0.995,0.993-0.998h4.2c0.55,0.002,0.995,0.448,0.998,0.998
		L11.106,23.25z M20.798,17.511c0,0.267-0.106,0.522-0.296,0.71c-0.189,0.187-0.446,0.291-0.713,0.288h-4.2
		c-0.55-0.002-0.995-0.447-0.998-0.998v-6.76c0.002-0.55,0.448-0.995,0.998-0.998h4.2c0.549,0.002,0.993,0.448,0.993,0.998
		L20.798,17.511z"/>
</g>
</svg>
