<?xml version="1.0" encoding="utf-8"?>
<!-- Generator: Adobe Illustrator 16.0.3, SVG Export Plug-In . SVG Version: 6.00 Build 0)  -->
<!DOCTYPE svg PUBLIC "-//W3C//DTD SVG 1.1//EN" "http://www.w3.org/Graphics/SVG/1.1/DTD/svg11.dtd">
<svg version="1.1" id="レイヤー_1" xmlns="http://www.w3.org/2000/svg" xmlns:xlink="http://www.w3.org/1999/xlink" x="0px"
	 y="0px" width="200.25px" height="164px" viewBox="0 0 200.25 164" enable-background="new 0 0 200.25 164" xml:space="preserve">
<path id="Fill-4" fill="#EA5252" d="M196.279,93.021c-0.7-0.562-1.489-0.939-2.347-1.103c-5.067,5.051-11.25,10.37-16.74,13.946
	c-2.534,1.684-5.72,2.525-7.829,2.525c-4.856,0-6.966-4.631-7.6-11.99c-0.845-9.887-1.415-21.727-1.415-40.028
	c0-18.77-4.26-31.53-15.608-32.531c-0.479-0.042-0.964-0.072-1.471-0.072c-6.966,0-10.344,3.575-14.776,12.622
	c-3.799,7.781-9.71,19.14-20.685,40.595c-9.5,18.511-20.054,34.919-29.132,46.277c-2.528,3.148-4.526,5.312-6.404,6.542
	c-1.254,0.826-2.458,1.239-3.727,1.239c-3.583,0-6.199-3.023-7.073-10.064c-0.208-1.673-0.317-3.572-0.317-5.712
	c0-14.512,5.49-38.072,14.987-72.779c6.966-25.241,4.012-42.487-11.188-42.487c-0.024,0-0.048,0-0.072,0c-0.032,0-0.063,0-0.098,0
	l-0.011,0.003c-3.442,0.04-6.295,1.287-9.044,3.45c-2.707,2.131-5.416,6.734-7.944,12.922c-2.85,6.972-20.182,41.735-47.766,59.645
	c-0.325,6.809,3.53,13.616,11.34,14.353c7.11,0.674,12.158-2.323,18.658-6.689c-0.487,2.17-0.938,4.202-1.348,6.057
	c-0.485,2.193-0.897,4.084-1.228,5.611c-0.495,2.271-0.81,3.734-0.903,4.139c-0.903,4.143-1.548,8.077-1.966,11.813
	c-3.89,34.766,12.225,51.922,31.095,51.922c3.154,0,6.279-0.376,9.382-1.164c20.792-5.272,40.808-29.122,64.501-84.025
	c-0.36,5.972-0.397,11.55-0.139,16.726c1.561,31.467,14.007,40.907,31.591,40.907c13.298,0,25.751-6.939,32.084-15.565
	c4.646-6.1,6.545-12.832,6.545-18.09C199.633,97.934,198.338,94.676,196.279,93.021"/>
</svg>
