<?xml version="1.0" encoding="UTF-8" standalone="no"?>
<!DOCTYPE svg PUBLIC "-//W3C//DTD SVG 1.1//EN" "http://www.w3.org/Graphics/SVG/1.1/DTD/svg11.dtd">
<svg width="100%" height="100%" viewBox="0 0 256 256" version="1.1" xmlns="http://www.w3.org/2000/svg" xmlns:xlink="http://www.w3.org/1999/xlink" xml:space="preserve" xmlns:serif="http://www.serif.com/" style="fill-rule:evenodd;clip-rule:evenodd;stroke-linejoin:round;stroke-miterlimit:2;">
    <path d="M244.002,56.005L244.002,120C244.002,126.583 238.585,132 232.002,132C225.419,132 220.002,126.583 220.002,120L220.002,84.971L144.488,160.485C142.238,162.735 139.184,164 136.002,164C132.821,164 129.767,162.735 127.517,160.485L96.002,128.971L32.488,192.485C30.239,194.731 27.187,195.994 24.008,195.994C17.425,195.994 12.008,190.577 12.008,183.994C12.008,180.816 13.271,177.764 15.517,175.515L87.517,103.515C89.767,101.265 92.821,100 96.002,100C99.184,100 102.238,101.265 104.488,103.515L136.002,135.029L203.032,68L168.002,68C161.419,68 156.002,62.583 156.002,56C156.002,49.417 161.419,44 168.002,44L231.998,44C232.395,44 232.793,44.021 233.189,44.06C233.356,44.076 233.518,44.108 233.683,44.131C233.906,44.163 234.129,44.189 234.35,44.233C234.542,44.271 234.728,44.324 234.917,44.371C235.108,44.419 235.3,44.461 235.49,44.519C235.675,44.575 235.854,44.645 236.035,44.709C236.223,44.776 236.413,44.839 236.598,44.915C236.767,44.985 236.928,45.068 237.092,45.145C237.283,45.234 237.476,45.319 237.663,45.419C237.818,45.503 237.965,45.598 238.117,45.688C238.302,45.798 238.489,45.903 238.669,46.023C238.833,46.134 238.988,46.257 239.147,46.375C239.302,46.49 239.46,46.598 239.611,46.722C239.895,46.956 240.167,47.203 240.429,47.461C240.448,47.48 240.469,47.496 240.488,47.515C240.507,47.534 240.522,47.555 240.541,47.574C240.8,47.836 241.048,48.108 241.281,48.393C241.401,48.539 241.506,48.692 241.618,48.843C241.74,49.006 241.866,49.165 241.979,49.335C242.098,49.512 242.201,49.696 242.31,49.877C242.401,50.032 242.499,50.183 242.583,50.341C242.682,50.525 242.766,50.715 242.854,50.903C242.933,51.07 243.016,51.234 243.087,51.406C243.163,51.589 243.225,51.776 243.291,51.962C243.357,52.145 243.427,52.326 243.484,52.513C243.541,52.702 243.583,52.893 243.63,53.083C243.678,53.273 243.731,53.459 243.77,53.652C243.813,53.873 243.84,54.096 243.871,54.318C243.895,54.484 243.926,54.646 243.942,54.814C243.982,55.21 244.002,55.607 244.002,56.005Z" style="fill:rgb(51,51,51);fill-rule:nonzero;stroke:rgb(51,51,51);stroke-width:1px;"/>
</svg>
