<svg xmlns="http://www.w3.org/2000/svg" xmlns:xlink="http://www.w3.org/1999/xlink" viewBox="0 0 512 512"><defs/><defs><path id="a" d="M452-1H60C27-1 0 26 0 59v392c0 33 27 60 60 60h392c33 0 60-27 60-60V59c0-33-27-60-60-60z"/></defs><clipPath id="b"><use overflow="visible" xlink:href="#a"/></clipPath><g clip-path="url(#b)"><path fill="#1589CC" d="M0-1h512v512H0z"/><g fill="#FFF"><path d="M301.669 277.067c-2.916-6.923-6.938-13.028-11.971-18.171-4.977-5.064-10.842-9.235-17.43-12.408-.581-.274-1.162-.555-1.754-.817.449-.313.888-.636 1.315-.97 5.339-4.04 9.877-8.787 13.483-14.109a58.812 58.812 0 007.98-17.523 72.59 72.59 0 002.521-19.041c0-21.471-8.528-37.787-25.355-48.51-15.994-10.184-38.862-15.139-69.896-15.139h-90.518v249.248h85.979c34.608 0 61.675-6.502 80.453-19.316 19.634-13.412 29.599-33.584 29.599-59.959.001-8.48-1.478-16.313-4.406-23.285zm-128.973-1.249h22.944c15.655 0 27.177 2.466 34.258 7.344 6.402 4.402 9.384 10.097 9.384 17.907 0 3.864-.768 7.372-2.356 10.732-1.59 3.338-3.859 6.177-6.973 8.671-3.2 2.576-7.323 4.654-12.277 6.178-5.142 1.573-11.303 2.373-18.297 2.373h-26.683v-53.205zm56.315-63.912c-1.086 2.861-2.895 5.355-5.503 7.646-2.719 2.379-6.358 4.309-10.843 5.729-4.713 1.496-10.71 2.264-17.813 2.264h-22.155v-47.643h22.155c7.104 0 13.188.625 18.056 1.852 4.538 1.146 8.222 2.719 10.94 4.688 2.434 1.754 4.144 3.781 5.196 6.188 1.173 2.658 1.765 5.723 1.765 9.127 0 3.628-.603 7.042-1.798 10.149zM401.965 346.991c0 18.022-14.624 32.636-32.646 32.636s-32.635-14.613-32.635-32.636c0-18.028 14.612-32.641 32.635-32.641s32.646 14.613 32.646 32.641zM337.9 130.379h62.848v165.719H337.9z"/></g></g></svg>