<svg xmlns="http://www.w3.org/2000/svg" xmlns:xlink="http://www.w3.org/1999/xlink" viewBox="0 0 512 512"><defs/><defs><path id="a" d="M452 0H60C27 0 0 27 0 60v392c0 33 27 60 60 60h392c33 0 60-27 60-60V60c0-33-27-60-60-60z"/></defs><clipPath id="b"><use overflow="visible" xlink:href="#a"/></clipPath><g clip-path="url(#b)"><path d="M0 0h512v512H0z"/><path fill="#FFF" d="M363.48 182.746h-86.99l50.558-50.268-12.563-12.451-58.685 58.377-58.515-58.155-12.618 12.506 50.295 49.99H148.49c-12.676 0-22.967 10.215-22.967 22.791v137.07c0 12.648 10.291 22.838 22.967 22.838h27.143l14.839 23.896c1.48 2.182 3.195 2.629 4.805 2.629 1.619 0 3.485-.699 4.729-2.629l14.828-23.896h79.429l14.819 23.896c1.467 2.182 3.214 2.629 4.814 2.629 1.609 0 3.48-.699 4.724-2.629l14.833-23.896h30.028c12.729 0 22.996-10.189 22.996-22.838v-137.07c0-12.575-10.268-22.79-22.997-22.79z"/></g></svg>