<?xml version="1.0" encoding="utf-8"?>
<!-- Generator: Adobe Illustrator 16.0.3, SVG Export Plug-In . SVG Version: 6.00 Build 0)  -->
<!DOCTYPE svg PUBLIC "-//W3C//DTD SVG 1.1//EN" "http://www.w3.org/Graphics/SVG/1.1/DTD/svg11.dtd">
<svg version="1.1" id="レイヤー_1" xmlns:serif="http://www.serif.com/"
	 xmlns="http://www.w3.org/2000/svg" xmlns:xlink="http://www.w3.org/1999/xlink" x="0px" y="0px" width="90.98px" height="65.5px"
	 viewBox="0 177.015 90.98 65.5" enable-background="new 0 177.015 90.98 65.5" xml:space="preserve">
<g transform="matrix(4.16667,0,0,4.16667,0,0)">
	<path fill="#ED1F24" d="M21.27,45.195c-0.249-0.933-0.984-1.668-1.917-1.917c-1.691-0.453-8.472-0.453-8.472-0.453
		s-6.781,0-8.472,0.453c-0.933,0.249-1.668,0.984-1.917,1.917c-0.453,1.691-0.453,5.22-0.453,5.22s0,3.529,0.453,5.22
		c0.249,0.933,0.984,1.668,1.917,1.917c1.691,0.453,8.472,0.453,8.472,0.453s6.781,0,8.472-0.453
		c0.933-0.249,1.668-0.984,1.917-1.917c0.453-1.691,0.453-5.22,0.453-5.22S21.723,46.887,21.27,45.195z"/>
	<path fill="#FFFFFF" d="M8.711,53.668l5.634-3.253l-5.634-3.253V53.668z"/>
</g>
</svg>
