<svg xmlns="http://www.w3.org/2000/svg" width="40" height="40.001" viewBox="0 0 40 40.001"><g transform="translate(-353.977 -213.592)"><g transform="translate(353.977 213.592)"><path d="M388.422,213.592h-28.89a5.572,5.572,0,0,0-5.555,5.556v28.889a5.571,5.571,0,0,0,5.555,5.555h28.89a5.572,5.572,0,0,0,5.555-5.555V219.148A5.573,5.573,0,0,0,388.422,213.592Z" transform="translate(-353.977 -213.592)" fill="#0068b7"/></g><g transform="translate(357.567 223.238)"><g transform="translate(8.033 0.363)"><path d="M459.317,247.106v2.774a2.953,2.953,0,1,0,1.375,2.5v-5.27Zm-1.578,6.848a1.578,1.578,0,1,1,1.578-1.579A1.579,1.579,0,0,1,457.738,253.954Z" transform="translate(-436.303 -247.106)" fill="#fff"/><g transform="translate(0 2.326)"><path d="M395.85,254.9a2.953,2.953,0,0,0-2.953,2.954v2.823h1.375v-2.823a1.579,1.579,0,0,1,1.578-1.577,1.553,1.553,0,0,1,.84.243l.647-1.219A2.942,2.942,0,0,0,395.85,254.9Z" transform="translate(-392.897 -254.895)" fill="#fff"/></g><path d="M410.6,256.24a1.578,1.578,0,1,1-1.577,1.577,1.581,1.581,0,0,1,1.577-1.577m0-1.376a2.954,2.954,0,1,0,2.953,2.953,2.954,2.954,0,0,0-2.953-2.953Z" transform="translate(-403.24 -252.547)" fill="#fff"/><path d="M400.372,294.9a1.579,1.579,0,1,1-1.577,1.578,1.58,1.58,0,0,1,1.577-1.578m0-1.375a2.954,2.954,0,1,0,2.954,2.953,2.953,2.953,0,0,0-2.954-2.953Z" transform="translate(-396.069 -279.663)" fill="#fff"/><g transform="translate(8.276 13.873)"><path d="M423.562,293.558a2.953,2.953,0,0,0-2.953,2.953v2.825h1.376v-2.825a1.579,1.579,0,0,1,1.577-1.578,1.558,1.558,0,0,1,.841.246l.646-1.219A2.926,2.926,0,0,0,423.562,293.558Z" transform="translate(-420.609 -293.558)" fill="#fff"/></g></g><path d="M463.406,295.042v-1.2a6.324,6.324,0,0,0-1.921-.321c-1.211,0-2.3.633-2.264,1.817.036,1.3.969,1.463,1.724,1.629,1.129.247,1.36.372,1.369.7.016.571-.75.536-1.307.536a5.222,5.222,0,0,1-1.7-.308v1.22a5.025,5.025,0,0,0,1.878.314c1.522,0,2.648-.546,2.614-1.761-.03-1.077-.519-1.453-2.1-1.8-.829-.181-1-.235-1.01-.577-.01-.374.349-.537.937-.535A7.432,7.432,0,0,1,463.406,295.042Z" transform="translate(-431.379 -279.298)" fill="#fff"/><path d="M370.689,285.767h1.5s.645,2.92,1.082,4.958c.505-1.974,1.313-4.958,1.313-4.958h1.572s-1.867,6.538-2.276,7.8a.61.61,0,0,1-.595.428.586.586,0,0,1-.6-.435c-.406-1.525-1.071-4.24-1.238-5.085h-.028c-.167.846-.832,3.561-1.238,5.085a.587.587,0,0,1-.6.435.608.608,0,0,1-.594-.428c-.41-1.258-2.277-7.8-2.277-7.8h1.572s.809,2.983,1.313,4.958c.438-2.038,1.082-4.958,1.082-4.958h1.5" transform="translate(-366.505 -273.857)" fill="#fff"/><path d="M431.621,257.348c.052.287.826,3.09,1.014,3.6a.6.6,0,0,0,.56.38.62.62,0,0,0,.564-.38c.293-.7,1.888-5.29,1.888-5.29h-1.394s-.906,2.838-1.028,3.359H433.2c-.1-.507-.968-3.359-.968-3.359h-1.25s-.864,2.852-.968,3.359h-.023c-.122-.521-1.027-3.359-1.027-3.359h-1.394s1.6,4.589,1.888,5.29a.62.62,0,0,0,.564.38.6.6,0,0,0,.56-.38c.188-.51.962-3.313,1.014-3.6Z" transform="translate(-409.183 -252.74)" fill="#fff"/><g transform="translate(0 0)"><path d="M370.293,253a2.82,2.82,0,1,1,1.945-4.854l1.038-1.037a4.294,4.294,0,1,0,0,6.143l-1.039-1.04A2.832,2.832,0,0,1,370.293,253Z" transform="translate(-365.999 -245.889)" fill="#fff"/></g><path d="M444.028,288.584h-1.8l-2.1,2.222H440.1v-4.5h-1.458v7.945H440.1v-2.681h.024l2.161,2.681h1.857l-2.574-3.067Z" transform="translate(-416.947 -274.238)" fill="#fff"/></g></g></svg>