<svg xmlns="http://www.w3.org/2000/svg" viewBox="0 0 21.5 24.208"><defs/><path fill="#41C9B4" d="M9.206 10.66H6.351c-.338 0-.45-.018-.623-.07-.467-.138-.831-.605-.831-1.159s.364-1.02.83-1.16c.174-.051.286-.068.624-.068h1.851V6.35c0-.338.018-.45.07-.623.138-.476.605-.831 1.159-.831.553 0 1.021.363 1.16.831.051.173.069.285.069.623v2.855c0 .173 0 .346-.035.502a1.266 1.266 0 01-.917.917c-.156.035-.329.035-.502.036zm9.171 10.486H3.063V7.657c0-.173.06-.32.181-.44l3.972-3.973a.6.6 0 01.441-.181h10.72v18.083zM.744 5.391c-.407.406-.674.917-.727 1.488A4.169 4.169 0 000 7.25v15.254c0 .199.009.303.017.38.07.65.658 1.238 1.307 1.308.078.008.182.017.38.017h18.032c.199 0 .303-.009.38-.017.65-.07 1.238-.658 1.307-1.308a3.15 3.15 0 00.017-.38v-20.8c0-.2-.008-.303-.017-.381-.07-.649-.658-1.237-1.306-1.306A3.238 3.238 0 0019.736 0H7.25a4.13 4.13 0 00-.372.018c-.572.051-1.082.32-1.489.726L.744 5.391z"/></svg>