<svg xmlns="http://www.w3.org/2000/svg" viewBox=".75 .691 71.375 71.75"><defs/><path fill="#F50A00" d="M36.566 68.573c-27.663 0-32.01-4.346-32.01-32.01 0-27.66 4.347-32.006 32.01-32.006 27.664 0 32.007 4.346 32.007 32.006 0 27.664-4.343 32.01-32.007 32.01m0-67.574C6.758 1 1 6.758 1 36.563c0 29.809 5.759 35.567 35.567 35.567 29.809 0 35.564-5.758 35.564-35.567C72.13 6.758 66.375 1 36.566 1"/><path fill="#F50A00" d="M47.935 17.594c-5.11 0-9.496 3.293-11.37 7.989-1.873-4.696-6.258-7.989-11.37-7.989-5.223 0-12.34 3.135-12.34 13.272 0 13.574 17.786 25.677 23.71 30.196 5.925-4.52 23.712-16.622 23.712-30.196 0-10.137-7.122-13.272-12.342-13.272"/></svg>