<svg xmlns="http://www.w3.org/2000/svg" fill-rule="evenodd" stroke-linejoin="round" stroke-miterlimit="2" clip-rule="evenodd" viewBox="0 0 64 64"><defs/><path fill="#e60023" fill-rule="nonzero" d="M0 32c0 13.661 8.563 25.325 20.613 29.914-.293-2.498-.605-6.618.067-9.509.579-2.485 3.736-15.835 3.736-15.835s-.952-1.906-.952-4.73c0-4.427 2.565-7.733 5.763-7.733 2.72 0 4.032 2.04 4.032 4.485 0 2.733-1.741 6.818-2.64 10.608-.75 3.171 1.592 5.757 4.717 5.757 5.662 0 10.016-5.971 10.016-14.589 0-7.629-5.482-12.96-13.309-12.96-9.061 0-14.381 6.797-14.381 13.824 0 2.739 1.054 5.672 2.371 7.27a.96.96 0 01.221.914c-.243 1.008-.781 3.171-.885 3.613-.142.582-.461.707-1.067.424-3.979-1.851-6.464-7.666-6.464-12.338 0-10.051 7.299-19.277 21.045-19.277 11.051 0 19.64 7.875 19.64 18.397 0 10.978-6.92 19.816-16.53 19.816-3.229 0-6.262-1.68-7.302-3.662 0 0-1.597 6.086-1.984 7.574-.752 2.891-2.837 6.549-4.13 8.627C25.557 63.507 28.72 64 32 64c17.672 0 32-14.328 32-32S49.672 0 32 0 0 14.328 0 32"/></svg>