<svg xmlns="http://www.w3.org/2000/svg" viewBox="18.563 73.598 252.333 253"><defs/><path fill="none" d="M.001 36.538h277.5v340.939H.001z"/><g transform="translate(3 6)"><linearGradient id="a" x1="-1.61" x2="-.611" y1="413.089" y2="413.089" gradientTransform="scale(223.9543 -223.9543) rotate(-45 -499.928 204.005)" gradientUnits="userSpaceOnUse"><stop offset="0" stop-color="#30b396"/><stop offset=".2" stop-color="#30b396"/><stop offset="1" stop-color="#1e5e71"/></linearGradient><circle cx="141.879" cy="194.316" r="111.935" fill="url(#a)"/></g><path fill="#1E5E71" d="M144.879 88.381c61.403 0 111.936 50.531 111.936 111.936 0 61.403-50.532 111.935-111.936 111.935-61.404 0-111.935-50.531-111.935-111.935 0-61.405 50.532-111.936 111.935-111.936m0-14.047c-69.114 0-125.982 56.868-125.982 125.982 0 69.113 56.868 125.981 125.982 125.981s125.982-56.868 125.982-125.981c.001-69.114-56.867-125.982-125.982-125.982z"/><path fill="#FFF" d="M92.43 137.45l5.454-15.976 23.965 8.182-5.455 15.976zM76.067 185.361l5.455-15.976 23.964 8.181-5.455 15.977zM59.725 233.213l5.454-15.976 23.964 8.182-5.454 15.975zM69.29 282.898l3.276-9.575-17.386-5.921a111.975 111.975 0 0014.11 15.496z"/><path fill="#FFF" d="M116.534 118.994l15.748 5.732-10.646 31.496-15.937-5.48-5.48 16 15.937 5.479-10.897 31.874-15.937-5.48-5.48 16 15.937 5.479-10.899 31.875-15.937-5.48-5.417 16.188 15.937 5.48-7.055 20.347a112.029 112.029 0 0014.551 9.638l46.299-135.62.378-1.008 11.149-32.692 2.395-6.93-31.874-10.897-2.772 7.999zM247.367 155.403l-83.968-28.724-60.535 177.384a111.838 111.838 0 0042.161 8.245c61.365 0 111.871-50.5 111.871-111.872a111.86 111.86 0 00-9.467-45.032h-.062z"/><circle cx="141.879" cy="194.316" r="111.935" fill="none" transform="translate(3 6)"/></svg>