<svg xmlns="http://www.w3.org/2000/svg" viewBox="54.23 82.932 218.333 276.667"><defs/><g transform="translate(17 15)"><linearGradient id="a" x1="-15.998" x2="-14.998" y1="404.833" y2="404.833" gradientTransform="matrix(0 273.9135 273.9135 0 -110742.64 4451.296)" gradientUnits="userSpaceOnUse"><stop offset="0" stop-color="#1aa2d6"/><stop offset=".1" stop-color="#1caed6"/><stop offset=".14" stop-color="#1eb5d6"/><stop offset=".19" stop-color="#2ab6d6"/><stop offset=".26" stop-color="#49b7d6"/><stop offset=".37" stop-color="#7bb9d7"/><stop offset=".5" stop-color="#bfbcd7"/><stop offset=".54" stop-color="#d7bdd7"/><stop offset=".71" stop-color="#f8b0b7"/><stop offset=".77" stop-color="#f7a3ac"/><stop offset=".88" stop-color="#f5808d"/><stop offset=".99" stop-color="#f25366"/><stop offset="1" stop-color="#f25366"/></linearGradient><path fill="url(#a)" d="M178.033 70.499a230.018 230.018 0 00-104.326 77.022c-62.882 76.502-44.8 145.054 78.717 130.521 64.837-6.516 39.554-85.298-17.138-44.408-74.612 54.509-44.376 145.9 46.07 94.389 91.619-53.271 117.686-193.926-41.77-162.614-38.675 7.591-35.84 60.178 6.516 52.847 28.51-4.92 64.609-48.677 64.609-80.313 0-18.05-12.283-28.965-24.599-25.283-11.729 3.486-11.827 20.689-2.15 24.24 14.173 5.214-1.792 36.329-33.494 56.725-12.251 7.885-18.767-2.965-4.235-5.538 68.845-12.056 91.521 9.774 81.454 46.037a123.452 123.452 0 01-67.054 76.926c-56.626 26.065-54.378-22.449-15.899-57.735 18.995-16.29 28.835-3.258 11.339 0-35.384 5.214-125.863 14.923-78-68.649 28.443-49.589 75.295-81.258 110.516-91.554 14.109-4.237 9.45-29.456-10.556-22.613z"/></g></svg>