<svg xmlns="http://www.w3.org/2000/svg" xmlns:xlink="http://www.w3.org/1999/xlink" viewBox="0 0 100 100"><defs/><defs><circle id="a" cx="50" cy="50" r="50"/></defs><clipPath id="b"><use overflow="visible" xlink:href="#a"/></clipPath><g clip-path="url(#b)"><path fill="#4A8CFF" d="M-2.731-2.731H102.73V102.73H-2.731V-2.731z"/></g><g><defs><path id="c" d="M65.253 42.356L79.346 32.06c1.224-1.013 2.174-.759 2.174 1.076V64.53c0 2.089-1.161 1.835-2.174 1.076L65.253 55.331V42.356zm-47.682-9.135v23.417c.021 5.297 4.346 9.558 9.621 9.537h34.136c.971 0 1.751-.78 1.751-1.73V41.027c-.021-5.295-4.346-9.557-9.62-9.536H19.323c-.971 0-1.752.78-1.752 1.73z"/></defs><clipPath id="d"><use overflow="visible" xlink:href="#c"/></clipPath><g clip-path="url(#d)"><path fill="#FFF" d="M14.871 28.79h69.348v40.086H14.871V28.79z"/></g></g></svg>