<svg xmlns="http://www.w3.org/2000/svg" viewBox="0 0 100 100"><defs/><path fill="#333" d="M80.117 70.688c-3.813 0-7.225 1.496-9.825 3.854L34.488 53.717c.258-1.154.458-2.316.458-3.517s-.204-2.358-.458-3.517l35.4-20.629c2.7 2.5 6.271 4.062 10.229 4.062a15.03 15.03 0 0015.07-15.058C95.188 6.729 88.459 0 80.117 0c-8.33 0-15.059 6.729-15.059 15.054 0 1.216.204 2.358.459 3.517l-35.4 20.646c-2.704-2.513-6.271-4.071-10.233-4.071-8.346 0-15.071 6.725-15.071 15.054s6.725 15.058 15.071 15.058c3.958 0 7.529-1.563 10.229-4.063l35.741 20.871c-.245 1.063-.399 2.171-.399 3.275 0 8.084 6.587 14.658 14.658 14.658 8.079 0 14.671-6.57 14.671-14.658s-6.589-14.653-14.667-14.653z"/></svg>