<?xml version="1.0" encoding="UTF-8" standalone="no"?>
<!DOCTYPE svg PUBLIC "-//W3C//DTD SVG 1.1//EN" "http://www.w3.org/Graphics/SVG/1.1/DTD/svg11.dtd">
<svg width="100%" height="100%" viewBox="0 0 18 20" version="1.1" xmlns="http://www.w3.org/2000/svg" xmlns:xlink="http://www.w3.org/1999/xlink" xml:space="preserve" xmlns:serif="http://www.serif.com/" style="fill-rule:evenodd;clip-rule:evenodd;stroke-linejoin:round;stroke-miterlimit:2;">
    <g transform="matrix(1,0,0,1,-103,-3743)">
        <g id="Icons">
            <g id="Two-Tone">
                <g id="Path" transform="matrix(1,0,0,1,100,3742)">
                    <path d="M0,0L24,0L24,24L0,24L0,0Z" style="fill:none;"/>
                </g>
                <g id="🔹-Primary-Color" transform="matrix(1,0,0,1,100,3742)">
                    <path d="M19,3L18,3L18,1L16,1L16,3L8,3L8,1L6,1L6,3L5,3C3.9,3 3,3.9 3,5L3,19C3,20.1 3.9,21 5,21L19,21C20.1,21 21,20.1 21,19L21,5C21,3.9 20.1,3 19,3ZM19,19L5,19L5,9L19,9L19,19ZM19,7L5,7L5,5L19,5L19,7ZM16.49,11.53L15.43,10.47L10.56,15.34L8.45,13.23L7.39,14.29L10.56,17.46L16.49,11.53Z" style="fill:rgb(51,51,51);"/>
                </g>
            </g>
        </g>
    </g>
</svg>
